<svg xmlns="http://www.w3.org/2000/svg" width="32" height="32" viewBox="0 0 32 32">
  <!-- Fondo -->
  <rect width="32" height="32" fill="#1a1a1a" rx="4"/>
  
  <!-- Teclas blancas del piano -->
  <rect x="2" y="8" width="3.5" height="16" fill="#ffffff" stroke="#d4af37" stroke-width="0.3"/>
  <rect x="6" y="8" width="3.5" height="16" fill="#ffffff" stroke="#d4af37" stroke-width="0.3"/>
  <rect x="10" y="8" width="3.5" height="16" fill="#ffffff" stroke="#d4af37" stroke-width="0.3"/>
  <rect x="14" y="8" width="3.5" height="16" fill="#ffffff" stroke="#d4af37" stroke-width="0.3"/>
  <rect x="18" y="8" width="3.5" height="16" fill="#ffffff" stroke="#d4af37" stroke-width="0.3"/>
  <rect x="22" y="8" width="3.5" height="16" fill="#ffffff" stroke="#d4af37" stroke-width="0.3"/>
  <rect x="26" y="8" width="3.5" height="16" fill="#ffffff" stroke="#d4af37" stroke-width="0.3"/>
  
  <!-- Teclas negras del piano -->
  <rect x="4" y="8" width="2" height="10" fill="#2a2a2a"/>
  <rect x="8" y="8" width="2" height="10" fill="#2a2a2a"/>
  <rect x="12" y="8" width="2" height="10" fill="#2a2a2a"/>
  <rect x="16" y="8" width="2" height="10" fill="#2a2a2a"/>
  <rect x="20" y="8" width="2" height="10" fill="#2a2a2a"/>
  <rect x="24" y="8" width="2" height="10" fill="#2a2a2a"/>
  
  <!-- Nota musical decorativa -->
  <circle cx="16" cy="4" r="1.5" fill="#d4af37"/>
  <rect x="17" y="3" width="0.4" height="4" fill="#d4af37"/>
  <path d="M17.4 3 Q19 2.5 19 4" stroke="#d4af37" stroke-width="0.4" fill="none"/>
</svg>
